<svg xmlns="http://www.w3.org/2000/svg" xmlns:xlink="http://www.w3.org/1999/xlink" version="1.1" id="レイヤー_1" x="0px" y="0px" viewBox="0 0 251 74" style="enable-background:new 0 0 251 74;" xml:space="preserve">
<style type="text/css">
	.st0{fill:#E50012;}
	.st1{fill:#009844;}
	.st2{fill:#005EAD;}
	.st3{fill:#FFFFFF;}
	.st4{fill:#231815;}
	.st5{fill:url(#SVGID_1_);}
	.st6{fill:url(#SVGID_2_);}
	.st7{fill:none;}
</style>
<g>
	<g>
		<g>
			<path class="st0" d="M163,32.5v2.7c0.5,0.7,1.1,1.7,1.9,2.4v8.2c0,0-1-0.7-1.9-1.6v12.4h-11.1v-7.2c0.2,0,0.3,0,0.5,0l0,0     c0.9,0,1.7-0.3,2.3-0.9c0.6-0.6,0.9-1.4,0.9-2.3c0-1.1-0.5-2-1.4-2.6c0.4-0.3,0.7-0.6,0.9-1c0.4-0.8,0.6-1.6,0.3-2.4     c-0.2-0.8-0.8-1.5-1.5-2c-0.5-0.3-1-0.4-1.6-0.4c-0.2,0-0.3,0-0.5,0v-5.2h-9v-6.3h9v-8.8H163v8.8h1.9v6.3L163,32.5L163,32.5z      M102.7,23.7v9h-1.5l0.8-4.3H92l-3.5,21.8c0.4,6.3,5.9,6.3,5.9,6.3h36.8c4.2-0.4,4.3-4.3,4.3-4.3V37.5c-0.2-5-4.7-4.8-4.7-4.8     h-6.8v-9h11.5v-6.3H88.5v6.3H102.7z M112.1,32.8v-9h2.6v9H112.1z M126,37.5v2.1h-0.8c-1.1-0.1-1.1-1-1.1-1v-1.1H126z M109.4,46.5     c0,0,2.2,0.1,2.7-2.7v-6.3h2.6v5.2c0,0-0.2,3.5,3.9,3.9h5.5l1.9-7v10.7h-25.2c0,0-2-0.1-2.1-2l1.7-10.8h2.3v6.3     c0,0,0.4,2.2-1.9,2.8H109.4z M169.2,20.6l-4.1,17h9.2l4.1-17L169.2,20.6z M176.5,17.5c2.1,0.3,2.2,1.9,2.2,1.9l4.4,18.2h9.2     l-4.1-17c0,0-0.3-2.9-3.8-3.1H176.5z M165.1,51.3c-0.3,5.2,4.1,5.2,4.1,5.2h19.5c4.3-0.6,4.1-4.8,4.1-4.8l-2.7-11.2l-9.2,0     l2.4,10.1h-9l2.9-12.1h-9.2L165.1,51.3z M236.7,48.6v2.1h14.2v5.9h-38v-5.9h13.6v-2.1h-12.7l0-4h12.7v-3h-7.8     c0,0-4.2,0.1-4.7-4.8l0.2-1.3h-1.1L209,56.6h-10.4l6.7-34h-2.6v-5.1h43.4c0,0,4.4-0.2,4.8,4.6v3c0,0-0.2,4.3-4.4,4.6h-32.2     l-0.4,1.9h36.9v4h-3.7l3.7,6h-14.2v3h12.2v4L236.7,48.6z M215.3,24.5h24.5l0-1.9h-24.1L215.3,24.5z M224.7,37.6h13.6l-1.2-2h-12     L224.7,37.6z"/>
			<g>
				<path class="st1" d="M146.1,39.2l0.1,0.1l1.7,3l1.7-3l0.1-0.2c0-0.1,0.1-0.1,0.1-0.2c0.2-0.5,0.2-1.2-0.1-1.7      c-0.6-1-1.8-1.3-2.8-0.8c-0.9,0.5-1.2,1.6-0.9,2.5C146,39,146,39.1,146.1,39.2z"/>
				<path class="st1" d="M152.3,42.9h0.2c0.1,0,0.1,0,0.2,0c0.6-0.1,1.1-0.5,1.4-1c0.6-1,0.2-2.2-0.8-2.8c-0.9-0.5-2-0.3-2.6,0.5      c-0.1,0.1-0.1,0.2-0.2,0.2l-0.1,0.1l-1.7,3L152.3,42.9z"/>
				<path class="st1" d="M142.9,42.9c0.1,0,0.2,0,0.3,0h0.2h3.5l-1.7-3l-0.1-0.2c0-0.1-0.1-0.1-0.1-0.2c-0.4-0.5-0.9-0.7-1.6-0.7      c-1.1,0-2.1,0.9-2.1,2C141.2,41.9,142,42.7,142.9,42.9z"/>
				<path class="st1" d="M149.7,47.8l-0.1-0.1l-1.7-3l-1.7,3l-0.1,0.2c0,0.1-0.1,0.1-0.1,0.2c-0.2,0.5-0.2,1.2,0.1,1.7      c0.6,1,1.8,1.3,2.8,0.8c0.9-0.5,1.2-1.6,0.9-2.5C149.8,48,149.7,47.9,149.7,47.8z"/>
				<path class="st1" d="M143.4,44.1h-0.2c-0.1,0-0.1,0-0.2,0c-0.6,0.1-1.1,0.5-1.4,1c-0.6,1-0.2,2.2,0.8,2.8c0.9,0.5,2,0.3,2.6-0.5      c0.1-0.1,0.1-0.2,0.2-0.2l0.1-0.1l1.7-3L143.4,44.1L143.4,44.1z"/>
				<path class="st1" d="M152.8,44.1c-0.1,0-0.2,0-0.3,0h-0.2h-3.5l1.7,3l0.1,0.2c0,0.1,0.1,0.1,0.1,0.2c0.4,0.5,0.9,0.7,1.6,0.7      c1.1,0,2.1-0.9,2.1-2C154.5,45.1,153.7,44.3,152.8,44.1z"/>
			</g>
		</g>
		<g>
			<ellipse class="st2" cx="37.1" cy="37" rx="36.8" ry="36.8"/>
			<g>
				<path class="st3" d="M54.3,54.7c1.6,0,2.9-1.3,2.9-2.9c0-1.6-1.3-2.9-2.9-2.9H42.9c-1.6,0-2.9,1.3-2.9,2.9      c0,1.6,1.3,2.9,2.9,2.9H54.3z"/>
				<polygon class="st0" points="31.3,44.8 25.6,63.9 54.7,63.8 43.9,46.6     "/>
				<path class="st3" d="M25.6,64.2c-0.1,0-0.2,0-0.2-0.1s-0.1-0.2,0-0.2l5.8-19.1c0-0.1,0.2-0.2,0.3-0.2l12.5,1.8      c0.1,0,0.2,0.1,0.2,0.1l10.8,17.2c0.1,0.1,0.1,0.2,0,0.3c-0.1,0.1-0.1,0.1-0.2,0.1L25.6,64.2L25.6,64.2z M31.5,45.1L26,63.6      l28.2-0.1L43.7,46.8L31.5,45.1z"/>
				<path class="st3" d="M45.8,57.1c-2.4,0-4.4,2-4.4,4.4c0,2.4,2,4.4,4.4,4.4s4.4-2,4.4-4.4C50.2,59.1,48.3,57.1,45.8,57.1z"/>
				<path class="st3" d="M54.7,65.7c2.3,0,4.2-1.9,4.2-4.2s-1.9-4.2-4.2-4.2s-4.2,1.9-4.2,4.2C50.5,63.8,52.4,65.7,54.7,65.7z"/>
				<path class="st1" d="M59.4,45.4c-2.1-1.5-1.9-3-1.9-3c0-1.1,0.9-2,1.9-2c1.1,0,1.9,0.9,1.9,2C61.3,42.4,61.5,43.8,59.4,45.4z"/>
				<path class="st1" d="M59.2,45.5c-1.5,2.1-3,2-3,2c-1.1,0-1.9-0.9-1.9-1.9s0.9-2,1.9-2C56.2,43.5,57.7,43.4,59.2,45.5z"/>
				<path class="st1" d="M59.3,45.7c2.1,1.5,1.9,3,1.9,3c0,1.1-0.9,2-1.9,2c-1.1,0-1.9-0.9-1.9-2C57.4,48.7,57.3,47.2,59.3,45.7z"/>
				<path class="st1" d="M59.5,45.5c1.5-2.1,3-1.9,3-1.9c1.1,0,1.9,0.9,1.9,1.9c0,1.1-0.9,2-1.9,2C62.5,47.5,61.1,47.6,59.5,45.5z"/>
				<path class="st3" d="M55.8,54c0-0.1-0.2-0.2-0.3-0.2s-0.2,0.2-0.2,0.3c0,0.1,0.5,1.8,1.6,2.6c0.1,0,0.1,0.1,0.2,0.1      c0.1,0,0.2,0,0.2-0.1c0.1-0.1,0.1-0.3-0.1-0.4C56.3,55.6,55.8,54.1,55.8,54z"/>
				<path class="st3" d="M62.6,43.4L62.6,43.4C62.6,43.4,62.5,43.4,62.6,43.4c-0.2,0-0.7,0-1.4,0.4c0.5-0.8,0.4-1.4,0.4-1.4      c0-1.2-1-2.2-2.2-2.2s-2.2,1-2.2,2.1c0,0,0,0.6,0.4,1.4c-0.7-0.4-1.2-0.4-1.4-0.4c0,0-0.1,0-0.1,0c-1.2,0-2.2,1-2.2,2.2      s1,2.2,2.1,2.2l0,0c0,0,0,0,0.1,0c0.1,0,0.4,0,0.9-0.2c-0.8,1.1-2.5,3.4-2.8,4.3c0,0,0,0.1,0,0.1c0,0.1,0.1,2.9,0.6,4.9      c0,0.1,0.1,0.2,0.2,0.2c0,0,0.1,0,0.1,0c0.1,0,0.2-0.2,0.2-0.3c-0.5-1.8-0.6-4.3-0.6-4.7c0.3-0.7,1.5-2.4,2.3-3.6      c0,0.2,0,0.4,0,0.4c0,1.2,1,2.2,2.2,2.2c1.2,0,2.2-1,2.2-2.1c0,0,0-0.6-0.4-1.4c0.7,0.4,1.2,0.4,1.4,0.4c0,0,0.1,0,0.1,0      c1.2,0,2.2-1,2.2-2.2C64.7,44.3,63.8,43.4,62.6,43.4z M57.7,42.4c0-1,0.8-1.7,1.7-1.7c0.9,0,1.7,0.8,1.7,1.8      c0,0,0.1,1.3-1.7,2.7C57.6,43.7,57.7,42.4,57.7,42.4z M56.2,47.2c-0.9,0-1.7-0.8-1.7-1.7c0-1,0.8-1.7,1.8-1.7h0      c0.2,0,1.4,0.1,2.7,1.7C57.7,47.1,56.5,47.2,56.2,47.2L56.2,47.2z M61.1,48.7c0,1-0.8,1.7-1.7,1.7c-1,0-1.7-0.8-1.7-1.8      c0,0-0.1-1.3,1.7-2.7C61.2,47.3,61.1,48.7,61.1,48.7z M62.5,47.3L62.5,47.3c-0.3,0-1.4-0.1-2.7-1.7c1.3-1.7,2.4-1.7,2.7-1.7h0.1      c1,0,1.7,0.8,1.7,1.7C64.3,46.5,63.5,47.3,62.5,47.3z"/>
				<path class="st3" d="M21.7,50.3v-0.8c1.3,0,2.5,0.7,3.2,1.7l0.4-0.7c1.1,0.7,1.8,1.9,1.9,3.1l0.7-0.4c0.7,1.1,0.7,2.6,0.1,3.7      H29c0,1.3-0.7,2.5-1.7,3.2l0.7,0.4c-0.7,1.1-1.9,1.8-3.1,1.9l0.4,0.7c-1.1,0.7-2.6,0.7-3.6,0.1V64c-1.3,0-2.5-0.7-3.2-1.7      L18.1,63c-1.1-0.7-1.9-1.9-1.9-3.1l-0.7,0.4c-0.6-1.1-0.7-2.6-0.1-3.7h-0.9c0-1.3,0.7-2.5,1.7-3.2l-0.7-0.4      c0.6-1.1,1.9-1.8,3.1-1.9l-0.4-0.7C19.2,49.8,20.7,49.8,21.7,50.3"/>
				<path class="st3" d="M35.9,51.1c0-1.6-1.3-2.9-2.9-2.9c-1.6,0-2.9,1.3-2.9,2.9v11.4c0,1.6,1.3,2.9,2.9,2.9s2.9-1.3,2.9-2.9V51.1      z"/>
				<path class="st3" d="M45,20.1c0.1,0,0.2-0.1,0.2-0.2s-0.1-0.2-0.2-0.2l-20.6-5.6c-0.6-0.2-1.1-0.4-1.6-0.8      c-2-1.7-2.3-4.8-0.5-6.8c1.7-2,4.8-2.3,7-0.7l22.3,17.7c3.3,2.7,5.5,6.7,5.5,11.2c0,6.1-3.9,11.2-9.4,13      c-2.5,0.8-4.7,1.1-7.4,1.1c-2.6,0-5-0.4-7.3-1.1c-5.6-1.7-9.6-6.9-9.6-13c0-3,1-5.8,2.7-8c2.8-4.2,8.5-5.9,8.5-5.9      c0.1,0,0.2-0.1,0.2-0.2s-0.2-0.1-0.3-0.1l-21,8.5c-0.6,0.3-1.3,0.5-2,0.5c-2.7,0-4.8-2.2-4.8-4.8s2.2-4.8,4.9-4.8h28.8      C40.1,19.7,44.5,20.1,45,20.1z"/>
				<path class="st4" d="M31.9,40.7c-1.8,0-3.3-1.5-3.3-3.3s1.5-3.3,3.3-3.3c1.8,0,3.3,1.5,3.3,3.3C35.1,39.3,33.7,40.7,31.9,40.7z       M31.9,34.5c-1.6,0-2.9,1.3-2.9,2.9s1.3,2.9,2.9,2.9c1.6,0,2.9-1.3,2.9-2.9C34.8,35.9,33.5,34.5,31.9,34.5z"/>
				<path class="st4" d="M31.3,34.8c-1.5,0-2.8,1.2-2.8,2.8s1.2,2.8,2.8,2.8c1.5,0,2.8-1.2,2.8-2.8S32.8,34.8,31.3,34.8z"/>
				<path class="st4" d="M48.5,40.7c-1.8,0-3.3-1.5-3.3-3.3s1.5-3.3,3.3-3.3c1.8,0,3.3,1.5,3.3,3.3C51.7,39.3,50.3,40.7,48.5,40.7z       M48.5,34.5c-1.6,0-2.9,1.3-2.9,2.9s1.3,2.9,2.9,2.9c1.6,0,2.9-1.3,2.9-2.9C51.4,35.9,50.1,34.5,48.5,34.5z"/>
				<path class="st4" d="M47.9,34.8c-1.5,0-2.8,1.2-2.8,2.8s1.2,2.8,2.8,2.8c1.5,0,2.8-1.2,2.8-2.8S49.4,34.8,47.9,34.8z"/>
				
					<radialGradient id="SVGID_1_" cx="30.4127" cy="39.7849" r="0.8315" gradientTransform="matrix(1 0 0 -1 0 76)" gradientUnits="userSpaceOnUse">
					<stop offset="0" style="stop-color:#FFFFFF"/>
					<stop offset="1" style="stop-color:#000000"/>
				</radialGradient>
				<path class="st5" d="M30.4,37c0.5,0,0.8-0.4,0.8-0.8c0-0.5-0.4-0.8-0.8-0.8c-0.5,0-0.8,0.4-0.8,0.8C29.6,36.7,30,37,30.4,37z"/>
				
					<radialGradient id="SVGID_2_" cx="47.1195" cy="39.7849" r="0.8278" gradientTransform="matrix(1 0 0 -1 0 76)" gradientUnits="userSpaceOnUse">
					<stop offset="0" style="stop-color:#FFFFFF"/>
					<stop offset="1" style="stop-color:#000000"/>
				</radialGradient>
				<path class="st6" d="M47.1,37c0.5,0,0.8-0.4,0.8-0.8c0-0.5-0.4-0.8-0.8-0.8c-0.5,0-0.8,0.4-0.8,0.8C46.3,36.7,46.7,37,47.1,37z"/>
				<path class="st0" d="M40.1,43.5c-2,0-3.3-1.3-3.6-1.6c-0.1-0.2-0.2-0.2-0.3-0.2c0,0,0,0.1,0,0.1c0,0.1-0.2,0.2-0.3,0.2      c-0.1,0-0.2-0.1-0.2-0.3c0-0.1,0.1-0.4,0.4-0.5c0.3-0.1,0.6,0.2,0.8,0.4c0.2,0.3,1.4,1.4,3.2,1.4c1.8,0,3-1.1,3.2-1.4      c0.2-0.2,0.4-0.5,0.8-0.4c0.3,0.1,0.3,0.4,0.4,0.5c0,0.1-0.1,0.2-0.2,0.3c-0.1,0-0.2-0.1-0.3-0.2c0-0.1,0-0.1-0.1-0.2l0,0      c0,0-0.1,0.1-0.2,0.2C43.5,42.3,42.2,43.5,40.1,43.5z"/>
				<path class="st3" d="M44.6,48.8c-1.4,0.2-2.8,0.3-4.5,0.3c-1.5,0-2.7-0.1-3.8-0.2v0.6c0,1.3,1,2.3,2.3,2.3c1.3,0,2.3-1,2.3-2.3      c0-0.1,0-0.1,0.1-0.1c0.1,0,0.1,0.1,0.1,0.1c0,1.3,1,2.3,2.3,2.3c1,0,1.8-0.6,2.2-1.5L44.6,48.8z"/>
			</g>
		</g>
		<rect x="-14.5" y="-14.6" class="st7" width="14.7" height="103.2"/>
		<rect x="250.8" y="-14.6" class="st7" width="14.7" height="103.2"/>
		<rect x="73.9" y="-14.6" class="st7" width="14.7" height="103.2"/>
		<rect x="0.2" y="73.8" class="st7" width="250.5" height="14.7"/>
		<rect x="0.2" y="-14.6" class="st7" width="250.5" height="14.7"/>
		<rect x="73.9" y="-14.6" class="st7" width="176.9" height="31.9"/>
		<rect x="73.9" y="56.7" class="st7" width="176.9" height="31.9"/>
	</g>
	<g>
		<path class="st4" d="M137.6,62.5h1l3,4.9v-4.9h0.8v6.1h-0.9l-3.1-4.9v4.9h-0.8V62.5z"/>
		<path class="st4" d="M145.3,62.5h0.8v0.8h-0.8V62.5z M145.3,64.1h0.8v4.4h-0.8V64.1z"/>
		<path class="st4" d="M149.3,67.2c0,0.2,0.1,0.4,0.2,0.6c0.2,0.2,0.5,0.4,1,0.4c0.3,0,0.5-0.1,0.7-0.2s0.3-0.3,0.3-0.6    c0-0.2-0.1-0.3-0.3-0.4c-0.1-0.1-0.3-0.1-0.6-0.2l-0.6-0.2c-0.4-0.1-0.7-0.2-0.9-0.3c-0.3-0.2-0.5-0.5-0.5-0.8    c0-0.4,0.1-0.8,0.5-1c0.3-0.3,0.7-0.4,1.2-0.4c0.7,0,1.2,0.2,1.5,0.6c0.2,0.2,0.3,0.5,0.3,0.8h-0.7c0-0.2-0.1-0.3-0.2-0.5    c-0.2-0.2-0.5-0.3-0.9-0.3c-0.3,0-0.5,0.1-0.6,0.2c-0.1,0.1-0.2,0.2-0.2,0.4c0,0.2,0.1,0.3,0.3,0.5c0.1,0.1,0.3,0.1,0.5,0.2    l0.5,0.1c0.5,0.1,0.9,0.3,1.1,0.4c0.3,0.2,0.4,0.5,0.4,0.9c0,0.4-0.1,0.7-0.4,1c-0.3,0.3-0.8,0.4-1.4,0.4c-0.7,0-1.1-0.2-1.4-0.4    c-0.3-0.3-0.4-0.7-0.4-1.1L149.3,67.2L149.3,67.2z"/>
		<path class="st4" d="M154.8,62.4h0.7v2.3c0.2-0.2,0.3-0.4,0.5-0.5c0.2-0.2,0.5-0.2,0.9-0.2c0.6,0,1.1,0.2,1.3,0.7    c0.1,0.2,0.2,0.6,0.2,1v2.8h-0.8v-2.8c0-0.3,0-0.6-0.1-0.7c-0.1-0.2-0.4-0.4-0.8-0.4c-0.3,0-0.6,0.1-0.8,0.3s-0.4,0.6-0.4,1.2v2.3    h-0.7L154.8,62.4L154.8,62.4z"/>
		<path class="st4" d="M161.2,62.5h0.8v0.8h-0.8V62.5z M161.2,64.1h0.8v4.4h-0.8V64.1z"/>
		<path class="st4" d="M164.8,64.1h0.7v0.6c0.2-0.2,0.3-0.4,0.5-0.5c0.2-0.2,0.5-0.2,0.8-0.2c0.4,0,0.6,0.1,0.9,0.3    c0.1,0.1,0.2,0.2,0.3,0.4c0.2-0.2,0.4-0.4,0.6-0.5c0.2-0.1,0.5-0.2,0.8-0.2c0.6,0,1,0.2,1.2,0.6c0.1,0.2,0.2,0.5,0.2,0.9v2.9H170    v-3.1c0-0.3-0.1-0.5-0.2-0.6s-0.3-0.2-0.5-0.2c-0.3,0-0.5,0.1-0.8,0.3c-0.2,0.2-0.3,0.5-0.3,1v2.6h-0.8v-2.9c0-0.3,0-0.5-0.1-0.7    c-0.1-0.2-0.3-0.3-0.6-0.3c-0.3,0-0.5,0.1-0.8,0.3c-0.2,0.2-0.4,0.6-0.4,1.2v2.3h-0.7L164.8,64.1L164.8,64.1z"/>
		<path class="st4" d="M175.9,65.9c0.2,0,0.3-0.1,0.3-0.2c0-0.1,0.1-0.2,0.1-0.3c0-0.2-0.1-0.4-0.3-0.6c-0.2-0.1-0.4-0.2-0.8-0.2    c-0.4,0-0.7,0.1-0.8,0.3c-0.1,0.1-0.1,0.3-0.2,0.5h-0.7c0-0.6,0.2-0.9,0.5-1.1s0.7-0.3,1.2-0.3c0.5,0,0.9,0.1,1.3,0.3    c0.3,0.2,0.5,0.5,0.5,0.9v2.6c0,0.1,0,0.1,0.1,0.2s0.1,0.1,0.2,0.1c0,0,0.1,0,0.1,0c0,0,0.1,0,0.1,0v0.6c-0.1,0-0.2,0.1-0.3,0.1    c-0.1,0-0.1,0-0.2,0c-0.3,0-0.4-0.1-0.6-0.3c-0.1-0.1-0.1-0.2-0.1-0.4c-0.1,0.2-0.4,0.4-0.6,0.5c-0.3,0.2-0.6,0.2-0.9,0.2    c-0.4,0-0.8-0.1-1-0.4s-0.4-0.6-0.4-0.9c0-0.4,0.1-0.7,0.4-0.9c0.3-0.2,0.6-0.4,1-0.4L175.9,65.9z M174.4,67.9    c0.2,0.1,0.3,0.2,0.6,0.2c0.3,0,0.5-0.1,0.8-0.2c0.4-0.2,0.6-0.5,0.6-1v-0.6c-0.1,0.1-0.2,0.1-0.4,0.2s-0.3,0.1-0.4,0.1l-0.4,0.1    c-0.3,0-0.5,0.1-0.6,0.2c-0.2,0.1-0.4,0.3-0.4,0.6C174.1,67.6,174.2,67.8,174.4,67.9z"/>
		<path class="st4" d="M180.1,62.9h0.8v1.2h0.7v0.6h-0.7v2.9c0,0.2,0.1,0.3,0.2,0.3c0.1,0,0.1,0.1,0.3,0.1c0,0,0.1,0,0.1,0    c0,0,0.1,0,0.1,0v0.6c-0.1,0-0.2,0-0.3,0.1c-0.1,0-0.2,0-0.3,0c-0.4,0-0.6-0.1-0.7-0.3c-0.1-0.2-0.2-0.4-0.2-0.7v-2.9h-0.6v-0.6    h0.6L180.1,62.9L180.1,62.9z"/>
		<path class="st4" d="M184.4,67.2c0,0.2,0.1,0.4,0.2,0.6c0.2,0.2,0.5,0.4,1,0.4c0.3,0,0.5-0.1,0.7-0.2s0.3-0.3,0.3-0.6    c0-0.2-0.1-0.3-0.3-0.4c-0.1-0.1-0.3-0.1-0.6-0.2l-0.6-0.2c-0.4-0.1-0.7-0.2-0.9-0.3c-0.3-0.2-0.5-0.5-0.5-0.8    c0-0.4,0.1-0.8,0.5-1c0.3-0.3,0.7-0.4,1.2-0.4c0.7,0,1.2,0.2,1.5,0.6c0.2,0.2,0.3,0.5,0.3,0.8h-0.7c0-0.2-0.1-0.3-0.2-0.5    c-0.2-0.2-0.5-0.3-0.9-0.3c-0.3,0-0.5,0.1-0.6,0.2c-0.1,0.1-0.2,0.2-0.2,0.4c0,0.2,0.1,0.3,0.3,0.5c0.1,0.1,0.3,0.1,0.5,0.2    l0.5,0.1c0.5,0.1,0.9,0.3,1.1,0.4c0.3,0.2,0.4,0.5,0.4,0.9c0,0.4-0.1,0.7-0.4,1c-0.3,0.3-0.8,0.4-1.4,0.4c-0.7,0-1.1-0.2-1.4-0.4    c-0.3-0.3-0.4-0.7-0.4-1.1L184.4,67.2L184.4,67.2z"/>
		<path class="st4" d="M190.7,64.1v2.9c0,0.2,0,0.4,0.1,0.6c0.1,0.3,0.4,0.4,0.7,0.4c0.5,0,0.9-0.2,1-0.7c0.1-0.2,0.1-0.6,0.1-1    v-2.2h0.7v4.4h-0.7l0-0.7c-0.1,0.2-0.2,0.3-0.4,0.4c-0.3,0.2-0.6,0.3-1,0.3c-0.6,0-1-0.2-1.3-0.6c-0.1-0.2-0.2-0.5-0.2-0.9v-3    L190.7,64.1L190.7,64.1z"/>
		<path class="st4" d="M199.1,64.1h0.8c-0.1,0.3-0.3,0.9-0.7,1.9c-0.3,0.8-0.5,1.4-0.7,1.9c-0.4,1.1-0.7,1.8-0.9,2.1    c-0.2,0.2-0.5,0.4-0.9,0.4c-0.1,0-0.2,0-0.2,0c-0.1,0-0.1,0-0.2-0.1v-0.7c0.1,0,0.2,0.1,0.3,0.1s0.1,0,0.1,0c0.1,0,0.2,0,0.3-0.1    c0.1-0.1,0.1-0.1,0.2-0.2c0,0,0.1-0.1,0.1-0.3c0.1-0.2,0.1-0.4,0.2-0.4l-1.6-4.6h0.8l1.2,3.6L199.1,64.1z"/>
		<path class="st4" d="M204.6,65.9c0.2,0,0.3-0.1,0.3-0.2c0-0.1,0.1-0.2,0.1-0.3c0-0.2-0.1-0.4-0.3-0.6c-0.2-0.1-0.4-0.2-0.8-0.2    c-0.4,0-0.7,0.1-0.8,0.3c-0.1,0.1-0.1,0.3-0.2,0.5h-0.7c0-0.6,0.2-0.9,0.5-1.1s0.7-0.3,1.2-0.3c0.5,0,0.9,0.1,1.3,0.3    c0.3,0.2,0.5,0.5,0.5,0.9v2.6c0,0.1,0,0.1,0.1,0.2s0.1,0.1,0.2,0.1c0,0,0.1,0,0.1,0c0,0,0.1,0,0.1,0v0.6c-0.1,0-0.2,0.1-0.3,0.1    c-0.1,0-0.1,0-0.2,0c-0.3,0-0.4-0.1-0.6-0.3c-0.1-0.1-0.1-0.2-0.1-0.4c-0.1,0.2-0.4,0.4-0.6,0.5c-0.3,0.2-0.6,0.2-0.9,0.2    c-0.4,0-0.8-0.1-1-0.4s-0.4-0.6-0.4-0.9c0-0.4,0.1-0.7,0.4-0.9c0.3-0.2,0.6-0.4,1-0.4L204.6,65.9z M203.1,67.9    c0.2,0.1,0.3,0.2,0.6,0.2c0.3,0,0.5-0.1,0.8-0.2c0.4-0.2,0.6-0.5,0.6-1v-0.6c-0.1,0.1-0.2,0.1-0.4,0.2s-0.3,0.1-0.4,0.1l-0.4,0.1    c-0.3,0-0.5,0.1-0.6,0.2c-0.2,0.1-0.4,0.3-0.4,0.6C202.8,67.6,202.9,67.8,203.1,67.9z"/>
	</g>
</g>
</svg>